<?xml version="1.0" encoding="UTF-8"?>
<svg version="1.1" xmlns="http://www.w3.org/2000/svg" width="400" height="400">
<path d="M0 0 C2.390625 2.23828125 2.390625 2.23828125 4 4 C-3.00777183 10.3645464 -10.10993895 16.7399593 -18 22 C-23.15930239 21.55176274 -27.99020845 19.16160303 -32.765625 17.25976562 C-41.45107782 13.89415266 -49.50158648 12.63083473 -58.8125 12.6875 C-60.26825439 12.69595947 -60.26825439 12.69595947 -61.75341797 12.70458984 C-78.09752603 12.98114453 -92.04495717 18.71249763 -104 30 C-117.12406149 43.67188983 -122.5565762 60.34218602 -122.49023438 78.99584961 C-122.10445477 92.15116946 -118.04290893 103.49364431 -110 114 C-109.35417969 114.85078125 -108.70835938 115.7015625 -108.04296875 116.578125 C-97.6978059 129.09212534 -81.64933573 137.28306565 -66 141 C-50.30320019 141.71018004 -34.84891643 136.87540759 -22 128 C-20.69289062 127.10667969 -20.69289062 127.10667969 -19.359375 126.1953125 C-4.13219023 114.93840597 4.00144259 97.34831557 7 79 C7.01804688 78.07832031 7.03609375 77.15664062 7.0546875 76.20703125 C7.31006047 71.00192926 8.55920121 68.15785673 12.3671875 64.63671875 C16.41439905 61.19894224 20.65958222 58.05544697 25 55 C26.00933594 54.2884375 27.01867187 53.576875 28.05859375 52.84375 C30.01563578 51.51609269 31.97997694 50.22884736 34 49 C35.45008384 52.3186878 36.30215104 55.20735331 36.625 58.8125 C36.73714844 59.99779297 36.73714844 59.99779297 36.8515625 61.20703125 C36.92503906 62.09455078 36.92503906 62.09455078 37 63 C37.96873047 62.36384766 37.96873047 62.36384766 38.95703125 61.71484375 C61.55768943 47.64740261 88.99700376 42.04974667 115.125 47.96484375 C131.26883899 52.05358768 145.10475485 60.40012211 157 72 C153.69223006 75.56348283 150.03083185 78.24014855 146.0625 81 C144.8440731 81.85276962 143.62660827 82.70691563 142.41015625 83.5625 C141.82637207 83.96855469 141.24258789 84.37460938 140.64111328 84.79296875 C138.77627352 86.12224276 138.77627352 86.12224276 136.37109375 88.375 C134 90 134 90 131.671875 89.99609375 C127.32371384 88.37506875 123.30911302 86.17785289 119.234375 83.97070312 C106.34421536 77.24055246 88.84215324 76.65350051 74.9921875 80.83203125 C64.30119347 85.00514772 54.42864228 90.08931898 46 98 C45.37996094 98.5671875 44.75992188 99.134375 44.12109375 99.71875 C39.98552221 103.93758808 37.34086342 108.77735439 34.6875 114 C34.34960449 114.66451172 34.01170898 115.32902344 33.66357422 116.01367188 C27.23960754 129.24541691 26.64352268 145.58255639 31.125 159.5625 C37.18270485 177.02063535 46.86977174 191.28418204 63.11328125 200.6171875 C79.51198129 208.47258644 98.31613671 211.15558063 115.79296875 205.31640625 C132.50024534 198.45848638 143.20061035 186.68188043 150.65234375 170.38671875 C153.08924599 164.47879882 154.95202536 158.77682666 155.91796875 152.44140625 C158.41367159 136.74922921 158.41367159 136.74922921 163.625 132.55078125 C166.92979209 130.34938442 170.39354918 128.62045487 174.01074219 126.99560547 C176.1448669 125.92749543 177.96580191 124.67205727 179.8828125 123.25390625 C183 121 183 121 185 121 C187.7538012 128.54663638 188.54709743 135.43093644 188.5 143.4375 C188.49427979 144.57622559 188.48855957 145.71495117 188.48266602 146.88818359 C188.26802952 157.17483643 186.5167453 166.35582511 183 176 C182.74299316 176.70833984 182.48598633 177.41667969 182.22119141 178.14648438 C173.26728917 202.00157075 156.22052711 220.41560071 133.20703125 231.23828125 C107.40547031 242.59385967 77.9019491 238.76002658 52 230 C51.34 229.67 50.68 229.34 50 229 C50.02094727 229.56170898 50.04189453 230.12341797 50.06347656 230.70214844 C50.98705082 259.52000357 44.72063841 287.94874068 25 310 C24.24976563 310.84433594 23.49953125 311.68867188 22.7265625 312.55859375 C7.74499035 328.48560492 -13.36026054 336.42683016 -34.96875 337.23828125 C-57.74189358 337.69894988 -78.48252624 333.20082502 -100 326 C-100 322 -100 322 -98.6105957 320.24829102 C-97.97210693 319.67264404 -97.33361816 319.09699707 -96.67578125 318.50390625 C-95.97646484 317.86259766 -95.27714844 317.22128906 -94.55664062 316.56054688 C-93.44579102 315.57151367 -93.44579102 315.57151367 -92.3125 314.5625 C-90.87050634 313.25194812 -89.42908741 311.94076355 -87.98828125 310.62890625 C-87.30330566 310.01031738 -86.61833008 309.39172852 -85.91259766 308.75439453 C-83.53249716 306.57116729 -81.25661119 304.31002211 -79 302 C-77.94619141 302.43119141 -77.94619141 302.43119141 -76.87109375 302.87109375 C-73.95720137 304.01682831 -71.02817473 305.05867445 -68.0625 306.0625 C-67.06347656 306.40410156 -66.06445312 306.74570312 -65.03515625 307.09765625 C-48.14012318 312.12050392 -30.92467593 308.15551456 -15.66430664 300.26660156 C-1.16396698 292.34849916 9.2493328 280.53807726 15 265 C15.31839844 264.16339844 15.63679687 263.32679688 15.96484375 262.46484375 C21.28747224 246.20261939 17.79100017 229.65877841 10.26245117 214.80297852 C7.15315261 208.95512447 3.36422291 203.97540511 -1 199 C-1.7425 197.948125 -2.485 196.89625 -3.25 195.8125 C-14.61285947 184.19139373 -32.16136583 180.21438171 -47.8828125 179.9296875 C-64.9632545 180.49792138 -80.23984025 185.99531477 -92.90234375 197.7421875 C-104.31412308 210.02525725 -111.30937301 228.55982469 -110.96484375 245.3046875 C-110.80054186 257.25215147 -110.80054186 257.25215147 -114.0078125 261.92578125 C-116.55970796 264.18502815 -119.17610637 266.09560864 -122 268 C-123.43428373 269.25091646 -124.85259903 270.52051226 -126.25 271.8125 C-129.34613125 274.51846837 -132.51475505 276.8217219 -136 279 C-145.81726051 257.82063088 -145.61306538 233.12169567 -137.75 211.375 C-129.58779353 191.59734585 -117.16566938 175.71531065 -100 163 C-101.00417969 162.41734375 -102.00835937 161.8346875 -103.04296875 161.234375 C-112.78993362 155.44490551 -121.05743548 149.07741748 -129 141 C-129.83273438 140.16597656 -130.66546875 139.33195313 -131.5234375 138.47265625 C-148.19004806 120.92436493 -155.57353848 98.58734275 -155.20703125 74.75 C-154.30635191 47.34282487 -141.19478931 24.40923978 -121.93359375 5.62890625 C-86.1880754 -26.4040283 -38.8351482 -25.45276605 0 0 Z " fill="#000000" transform="translate(192,32)"/>
</svg>
